<?xml version="1.0" encoding="UTF-8"?>
<svg xmlns="http://www.w3.org/2000/svg" viewBox="0 0 24 24">
  <path fill="#000000" d="M16.365 1.43c0 1.14-.93 2.52-2.09 2.52-.03-1.05.93-2.52 2.09-2.52z
    M20.7 17.05c-.4.92-.88 1.77-1.45 2.56-.78 1.07-1.64 2.4-3.03 2.42-1.25.02-1.65-.8-3.07-.8s-1.86.78-3.07.82
    c-1.36.05-2.4-1.22-3.18-2.28-2.17-2.96-3.82-8.36-1.6-12.2 1.1-1.9 3.06-3.1 5.2-3.13 1.29-.02 2.5.87 3.07.87.57 0
    2.03-1.08 3.43-.92.59.02 2.24.24 3.3 1.78-.09.06-1.97 1.15-1.95 3.44.02 2.73 2.4 3.64 2.43 3.65-.02.06-.38 1.32-1.08 2.79z"/>
</svg>
