<?xml version="1.0" encoding="UTF-8"?>
<svg xmlns="http://www.w3.org/2000/svg" viewBox="0 0 24 24"
     fill="none" stroke="#F97316" stroke-width="2"
     stroke-linecap="round" stroke-linejoin="round">
  <path d="M22 16.92v3a2 2 0 0 1-2.18 2
           19.79 19.79 0 0 1-8.63-3.07
           19.5 19.5 0 0 1-6-6
           19.79 19.79 0 0 1-3.07-8.67
           A2 2 0 0 1 4.11 2h3
           a2 2 0 0 1 2 1.72
           c.12.89.37 1.76.73 2.59
           a2 2 0 0 1-.45 2.11L8.09 9.91
           a16 16 0 0 0 6 6l1.49-1.49
           a2 2 0 0 1 2.11-.45
           c.83.36 1.7.61 2.59.73
           a2 2 0 0 1 1.72 2z"/>
</svg>
